<svg width="95" height="95" viewBox="0 0 95 95" fill="none" xmlns="http://www.w3.org/2000/svg">
<path d="M2.56093 92.3209C4.16138 93.9214 6.24064 94.7205 8.1615 94.7205C10.0812 94.7205 12.3212 93.9202 13.7609 92.3209L47.3609 58.7209L80.9609 92.3209C82.5614 93.9214 84.6406 94.7205 86.5615 94.7205C88.4811 94.7205 90.7212 93.9202 92.1609 92.3209C95.3606 89.1212 95.3606 84.1612 92.1609 80.9603L58.5609 47.3604L92.1609 13.7604C95.3606 10.5606 95.3606 5.60064 92.1609 2.39979C88.9612 -0.799929 84.0012 -0.799929 80.8003 2.39979L47.2003 35.9998L13.7604 2.71979C10.5606 -0.479928 5.60064 -0.479928 2.39979 2.71979C-0.799928 5.9195 -0.799928 10.8795 2.39979 14.0804L35.9998 47.6804L2.55978 81.1203C-0.639929 84.1595 -0.639929 89.2801 2.55978 92.3201L2.56093 92.3209Z" fill="black"/>
</svg>
