<svg width="18" height="15" viewBox="0 0 18 15" fill="none" xmlns="http://www.w3.org/2000/svg">
<g clip-path="url(#clip0_10_270)">
<path d="M17.7922 7.5C17.7922 7.19686 17.6712 6.90627 17.4562 6.69183C17.2413 6.47759 16.9496 6.35721 16.6455 6.35721H4.07076L8.73165 2.02568C8.96638 1.8222 9.10815 1.53222 9.12414 1.22231C9.14034 0.912405 9.02917 0.609456 8.81663 0.382874C8.60409 0.156293 8.30818 0.0255324 7.99705 0.0207467C7.68594 0.0157642 7.386 0.137339 7.16647 0.357166L0.376215 6.66278C0.14368 6.87882 0.0117188 7.18155 0.0117188 7.49844C0.0117188 7.81532 0.14368 8.11808 0.376215 8.3341L7.16647 14.6428C7.46598 14.9214 7.89186 15.0196 8.28374 14.9005C8.67562 14.7811 8.97392 14.4626 9.06631 14.0646C9.15869 13.6668 9.03112 13.2501 8.73161 12.9712L4.07072 8.64266H16.6454C16.9495 8.64266 17.2413 8.52229 17.4562 8.30804C17.6711 8.0936 17.7921 7.80302 17.7921 7.49988L17.7922 7.5Z" fill="#ED6E26"/>
</g>
<defs>
<clipPath id="clip0_10_270">
<rect width="17.8125" height="15" fill="white"/>
</clipPath>
</defs>
</svg>
