<svg width="504" height="504" viewBox="0 0 504 504" fill="none" xmlns="http://www.w3.org/2000/svg">
<path d="M492.8 1.71661e-05H11.2C5.01637 1.71661e-05 0.000976562 5.01562 0.000976562 11.199V492.799C0.000976562 495.768 1.18068 498.619 3.28218 500.717C5.37988 502.819 8.23138 503.998 11.2002 503.998H492.8C495.769 503.998 498.62 502.819 500.718 500.717C502.82 498.619 503.999 495.768 503.999 492.799V11.199C503.999 8.23022 502.82 5.37872 500.718 3.28102C498.62 1.17942 495.769 -0.000183105 492.8 -0.000183105L492.8 1.71661e-05ZM379.79 144.03L143.97 379.85C142.861 380.924 141.103 380.924 139.993 379.85L124.145 364.002C123.071 362.893 123.071 361.135 124.145 360.025L359.965 124.205C361.071 123.131 362.833 123.131 363.942 124.205L379.79 139.998C380.899 141.112 380.899 142.916 379.79 144.03V144.03Z" fill="#E1E1E1"/>
</svg>
