<svg width="348" height="348" viewBox="0 0 348 348" fill="none" xmlns="http://www.w3.org/2000/svg">
<path d="M325.2 263.6H22.8004C10.4804 263.6 0.402344 273.678 0.402344 285.998C0.402344 298.318 10.4804 308.396 22.8004 308.396H325.2C337.52 308.396 347.598 298.318 347.598 285.998C347.602 273.678 337.52 263.6 325.2 263.6V263.6Z" fill="black"/>
<path d="M325.2 151.6H22.8004C10.4804 151.6 0.402344 161.678 0.402344 173.998C0.402344 186.318 10.4804 196.396 22.8004 196.396H325.2C337.52 196.396 347.598 186.318 347.598 173.998C347.602 161.678 337.52 151.6 325.2 151.6V151.6Z" fill="black"/>
<path d="M325.2 39.6H22.8004C10.4804 39.6 0.402344 49.678 0.402344 61.998C0.402344 74.318 10.4804 84.396 22.8004 84.396H325.2C337.52 84.396 347.598 74.318 347.598 61.998C347.602 49.678 337.52 39.6 325.2 39.6V39.6Z" fill="black"/>
</svg>
