<svg width="1025" height="542" viewBox="0 0 1025 542" fill="none" xmlns="http://www.w3.org/2000/svg">
<g clip-path="url(#clip0)">
<g opacity="0.7">
<path opacity="0.24" d="M98.25 33.5C93.9167 28.7991 93.9167 24.6325 98.25 21" stroke="#B0B0B0" stroke-width="6" stroke-linecap="round" stroke-linejoin="round"/>
<path opacity="0.6" d="M548.25 182C545.25 187.829 545.25 192.996 548.25 197.5" stroke="#B0B0B0" stroke-width="5" stroke-linecap="round" stroke-linejoin="round"/>
<path opacity="0.24" d="M163.25 129C162.25 130.829 163.25 133.996 166.25 138.5" stroke="#B0B0B0" stroke-width="5" stroke-linecap="round" stroke-linejoin="round"/>
<path opacity="0.24" d="M508.266 364C500.599 365.829 498.266 368.996 501.266 373.5" stroke="#B0B0B0" stroke-width="5" stroke-linecap="round" stroke-linejoin="round"/>
<path opacity="0.24" d="M225.558 206C219.891 209.162 218.558 212.996 221.558 217.5" stroke="#B0B0B0" stroke-width="4" stroke-linecap="round" stroke-linejoin="round"/>
<path opacity="0.24" d="M784 249.5C786.667 245.175 786.667 241.342 784 238" stroke="#B0B0B0" stroke-width="6" stroke-linecap="round" stroke-linejoin="round"/>
<path opacity="0.24" d="M344.6 149.5C340.6 145.175 339.933 141.342 342.6 138M1021.6 299.5C1017.6 295.175 1016.93 291.342 1019.6 288L1021.6 299.5Z" stroke="#B0B0B0" stroke-width="6" stroke-linecap="round" stroke-linejoin="round"/>
<path opacity="0.24" d="M710 67C711.333 71.3248 713.333 75.1581 716 78.5" stroke="#B0B0B0" stroke-width="6" stroke-linecap="round" stroke-linejoin="round"/>
<path opacity="0.6" d="M6 187.5C6 184.509 4.66667 181.342 2 178" stroke="#B0B0B0" stroke-width="4" stroke-linecap="round" stroke-linejoin="round"/>
<path opacity="0.6" d="M933 404.5C933 401.509 931.667 398.342 929 395" stroke="#B0B0B0" stroke-width="4" stroke-linecap="round" stroke-linejoin="round"/>
<path opacity="0.24" d="M685 364.5C685 361.509 683.667 358.342 681 355" stroke="#B0B0B0" stroke-width="4" stroke-linecap="round" stroke-linejoin="round"/>
<path opacity="0.24" d="M869.25 99.0933C869.585 94.3402 867.835 91.3092 864 90" stroke="#B0B0B0" stroke-width="6" stroke-linecap="round" stroke-linejoin="round"/>
<path opacity="0.6" d="M288 55C294 57 296 61 294 67" stroke="#B0B0B0" stroke-width="4" stroke-linecap="round" stroke-linejoin="round"/>
<path opacity="0.6" d="M966 11C972 13 974 17 972 23" stroke="#B0B0B0" stroke-width="4" stroke-linecap="round" stroke-linejoin="round"/>
<path opacity="0.24" d="M59.3081 491C59.1354 497.322 62.2101 500.57 68.5323 500.742" stroke="#B0B0B0" stroke-width="7" stroke-linecap="round" stroke-linejoin="round"/>
<path opacity="0.24" d="M504.732 10.0934C504.397 5.34037 506.147 2.30928 509.982 1.00012" stroke="#B0B0B0" stroke-width="6" stroke-linecap="round" stroke-linejoin="round"/>
<path opacity="0.6" d="M400.25 539.093C400.585 534.34 398.835 531.309 395 530" stroke="#B0B0B0" stroke-width="4" stroke-linecap="round" stroke-linejoin="round"/>
</g>
</g>
<defs>
<clipPath id="clip0">
<rect width="1025" height="542" fill="white"/>
</clipPath>
</defs>
</svg>
